<?xml version="1.0" encoding="iso-8859-1"?>
<!-- Uploaded to: SVG Repo, www.svgrepo.com, Generator: SVG Repo Mixer Tools -->
<svg fill="#000000" height="800px" width="800px" version="1.1" id="Layer_1" xmlns="http://www.w3.org/2000/svg" xmlns:xlink="http://www.w3.org/1999/xlink" 
	 viewBox="0 0 512 512" xml:space="preserve">
<g>
	<g>
		<path d="M485.876,320.442c4.81,0,8.708-3.899,8.708-8.708V134.101h5.225c4.81,0,8.708-3.899,8.708-8.708v-50.32
			c0-4.809-3.898-8.708-8.708-8.708h-33.961V25.253C465.848,11.328,454.52,0,440.595,0s-25.253,11.328-25.253,25.253v41.113h-33.961
			c-4.81,0-8.708,3.899-8.708,8.708v41.612H214.31c-4.809,0-8.708,3.899-8.708,8.708c0,4.809,3.899,8.708,8.708,8.708h172.296
			V377.91H125.382V134.101h59.902c4.809,0,8.708-3.899,8.708-8.708c0-4.809-3.899-8.708-8.708-8.708h-45.969V75.074
			c0-4.809-3.899-8.708-8.708-8.708H96.646V25.253C96.646,11.328,85.317,0,71.393,0C57.474,0,46.152,11.328,46.152,25.253v41.113
			H12.191c-4.809,0-8.708,3.899-8.708,8.708v50.32c0,4.809,3.899,8.708,8.708,8.708h5.225V377.91h-5.225
			c-4.809,0-8.708,3.899-8.708,8.708v50.32c0,4.809,3.899,8.708,8.708,8.708H79.23v41.101c0,4.321-3.516,7.837-7.837,7.837
			c-4.316,0-7.825-3.516-7.825-7.837v-20.601c0-4.809-3.899-8.708-8.708-8.708c-4.809,0-8.708,3.899-8.708,8.708v20.601
			c0,13.924,11.323,25.253,25.241,25.253c13.924,0,25.253-11.328,25.253-25.253v-41.101h33.961c4.809,0,8.708-3.899,8.708-8.708
			v-41.612h233.36v41.612c0,4.809,3.898,8.708,8.708,8.708h33.961v41.101c0,13.924,11.328,25.253,25.253,25.253
			s25.253-11.328,25.253-25.253v-41.101h33.961c4.81,0,8.708-3.899,8.708-8.708v-50.32c0-4.809-3.898-8.708-8.708-8.708h-5.225
			v-37.15c0-4.809-3.898-8.708-8.708-8.708s-8.708,3.899-8.708,8.708v37.15h-73.146V134.101h73.146v177.633
			C477.168,316.543,481.067,320.442,485.876,320.442z M63.567,25.253c0-4.321,3.51-7.837,7.825-7.837
			c4.321,0,7.837,3.516,7.837,7.837v41.113H63.567V25.253z M121.899,428.23h-101v-32.904h101V428.23z M34.832,377.91V134.101h73.135
			V377.91H34.832z M121.899,116.686h-101V83.781h101V116.686z M432.758,25.253c0-4.321,3.516-7.837,7.837-7.837
			s7.837,3.516,7.837,7.837v41.113h-15.674V25.253z M448.432,486.747c0,4.321-3.516,7.837-7.837,7.837s-7.837-3.516-7.837-7.837
			v-41.101h15.674V486.747z M491.101,395.326v32.904H390.09v-32.904H491.101z M390.09,116.686V83.781h101.011v32.904H390.09z"/>
	</g>
</g>
<g>
	<g>
		<path d="M348.959,300.965l-25.96-44.964l25.96-44.964c1.555-2.695,1.555-6.014-0.001-8.708c-1.556-2.694-4.429-4.354-7.541-4.354
			h-51.92l-25.96-44.965c-1.556-2.694-4.431-4.354-7.542-4.354c-3.112,0-5.985,1.66-7.541,4.354l-25.96,44.965h-51.92
			c-3.112,0-5.985,1.66-7.541,4.354c-1.556,2.694-1.556,6.014,0,8.708l25.96,44.964l-25.96,44.964c-1.556,2.694-1.556,6.014,0,8.708
			c1.556,2.694,4.429,4.354,7.541,4.354h51.921l25.96,44.964c1.556,2.694,4.429,4.354,7.541,4.354c3.11,0,5.986-1.66,7.542-4.354
			l25.96-44.964h51.92c3.112,0,5.985-1.66,7.541-4.354C350.515,306.979,350.515,303.659,348.959,300.965z M326.335,215.391
			l-13.392,23.194l-13.392-23.194H326.335z M255.996,174.78l13.392,23.195h-26.783L255.996,174.78z M185.657,215.391h26.783
			l-13.392,23.194L185.657,215.391z M185.657,296.611l13.392-23.195l13.392,23.195H185.657z M255.996,337.221l-13.392-23.194h26.783
			L255.996,337.221z M279.443,296.611H232.55l-23.446-40.61l23.446-40.61h46.892l23.446,40.61L279.443,296.611z M299.552,296.611
			l13.392-23.194l13.392,23.194H299.552z"/>
	</g>
</g>
</svg>